<svg width="128" height="128" viewBox="0 0 128 128" xmlns="http://www.w3.org/2000/svg"><title>icon</title><g fill="#FF8700" fill-rule="evenodd"><path d="M88.237 81.65c-1.409.416-2.533.572-4.007.572-12.074 0-29.804-42.194-29.804-56.237 0-5.17 1.224-6.894 2.952-8.374-14.778 1.724-32.51 7.148-38.179 14.042-1.225 1.726-1.97 4.434-1.97 7.883 0 21.922 23.398 71.667 39.904 71.667 7.638 0 20.512-12.552 31.104-29.553M80.53 16.138c15.27 0 30.549 2.462 30.549 11.082 0 17.486-11.09 38.677-16.752 38.677-10.099 0-22.661-28.085-22.661-42.128 0-6.404 2.463-7.631 8.863-7.631"/></g></svg>